<svg width="100" height="100" viewBox="0 0 100 100" fill="none" xmlns="http://www.w3.org/2000/svg">
<g clip-path="url(#clip0_4232_17554)">
<path d="M75.0319 0H24.9681C11.1786 0 0 11.1786 0 24.9681V75.0319C0 88.8214 11.1786 100 24.9681 100H75.0319C88.8214 100 100 88.8214 100 75.0319V24.9681C100 11.1786 88.8214 0 75.0319 0Z" fill="url(#paint0_linear_4232_17554)"/>
<path d="M75.0319 0H24.9681C11.1786 0 0 11.1786 0 24.9681V75.0319C0 88.8214 11.1786 100 24.9681 100H75.0319C88.8214 100 100 88.8214 100 75.0319V24.9681C100 11.1786 88.8214 0 75.0319 0Z" fill="url(#paint1_radial_4232_17554)"/>
<path fill-rule="evenodd" clip-rule="evenodd" d="M50.8216 87.833C43.3209 87.833 39.8352 86.738 33.7763 82.358C29.9438 87.2855 17.8077 91.1363 17.2784 84.548C17.2784 79.6024 16.1834 75.4232 14.9424 70.8607C13.4642 65.2397 11.7852 58.98 11.7852 49.9099C11.7852 28.2473 29.5606 11.9502 50.6209 11.9502C71.6994 11.9502 88.2156 29.0503 88.2156 50.1106C88.2863 70.8452 71.5561 87.7224 50.8216 87.833ZM51.1319 30.6745C40.8755 30.1453 32.882 37.2445 31.1118 48.3769C29.6518 57.5931 32.2433 68.8167 34.4515 69.4007C35.51 69.6562 38.1745 67.5027 39.8352 65.842C42.5813 67.7391 45.7791 68.8785 49.1062 69.1452C59.7335 69.6564 68.8142 61.5658 69.5277 50.9502C69.9431 40.312 61.7607 31.3016 51.1319 30.6928V30.6745Z" fill="white"/>
</g>
<defs>
<linearGradient id="paint0_linear_4232_17554" x1="11.7847" y1="76.0536" x2="100" y2="50" gradientUnits="userSpaceOnUse">
<stop stop-color="#44CCFF"/>
<stop offset="0.662" stop-color="#5533EE"/>
<stop offset="1" stop-color="#9933DD"/>
</linearGradient>
<radialGradient id="paint1_radial_4232_17554" cx="0" cy="0" r="1" gradientUnits="userSpaceOnUse" gradientTransform="translate(-2.37908 -43.9185) rotate(51.356) scale(121.352 50)">
<stop stop-color="#0000FF"/>
<stop offset="1" stop-opacity="0"/>
</radialGradient>
<clipPath id="clip0_4232_17554">
<rect width="100" height="100" fill="white"/>
</clipPath>
</defs>
</svg>
